<svg width="500" height="187" viewBox="0 0 500 187" fill="none" xmlns="http://www.w3.org/2000/svg">
<g clip-path="url(#clip0_156_2)">
<path d="M77.1978 44.5714L38.5934 22.2857L0 44.5714V22.2857L38.5989 0L77.2033 22.2857L77.1978 44.5714Z" fill="#A435F0"/>
<path d="M0 63.2853H20.2198V112.412C20.2198 125.104 29.6978 131.291 38.5989 131.291C47.5769 131.291 56.9835 124.939 56.9835 112.241V63.2853H77.2033V113.582C77.2033 125.274 73.5275 134.296 66.1758 140.483C58.8187 146.664 49.6319 149.675 38.4286 149.675C27.2363 149.675 18.044 146.67 10.8626 140.483C3.67582 134.302 0 125.615 0 114.082V63.2853ZM252.011 124.34C245.89 129.791 238.918 132.461 230.967 132.461C216.462 132.461 206.736 124.197 205.637 111.401H270.967C270.967 111.401 271.407 107.269 271.407 103.39C271.407 91.3568 267.56 81.3293 259.703 73.1425C252.022 64.9557 242 60.9447 229.797 60.9447C216.934 60.9447 206.401 64.9557 198.044 73.1425C189.857 81.3293 185.681 92.0216 185.681 105.395V106.055C185.681 119.258 189.857 129.785 198.044 137.642C206.231 145.494 217.093 149.505 230.297 149.505C245.648 149.505 257.863 143.45 267.027 133.011L252.011 124.34ZM213.582 83.3348C218.088 79.8238 223.61 77.9886 229.791 77.9886C235.637 77.9886 240.484 79.8238 244.665 83.5051C248.654 86.8568 250.808 90.9721 250.995 95.7029H206.154C206.802 90.8128 209.275 86.6919 213.588 83.3403L213.582 83.3348ZM455.549 160.857C447.346 180.225 438.764 186.813 425.604 186.813H416.484V168.89H423.857C428.385 168.89 432.593 167.186 436.604 157.934L440.615 148.67L406.022 63.2853H426.577L451.143 124.78L476.379 63.2853H496.929L455.549 160.857ZM155.918 31.0381V70.9117C149.291 64.9776 138.984 61.4447 129.016 61.4447C117.148 61.4447 107.126 65.6205 98.9396 74.137C90.9176 82.4941 86.9066 92.8513 86.9066 105.384C86.9066 117.923 90.9176 128.28 98.9396 136.802C107.126 145.159 117.154 149.34 129.016 149.34C142.698 149.34 151.346 143.961 155.918 139.747V147.5H175.973V31.0436L155.918 31.0381ZM149.901 123.774C145.055 128.621 138.874 131.131 131.687 131.131C124.5 131.131 118.654 128.621 113.808 123.774C109.137 118.928 106.791 112.747 106.791 105.395C106.791 98.0381 109.132 91.8568 113.808 87.0106C118.654 82.1645 124.5 79.659 131.687 79.659C138.874 79.659 145.055 82.1645 149.901 87.0106C154.912 91.8568 157.429 98.0381 157.429 105.395C157.429 112.747 154.912 118.928 149.901 123.774ZM374.846 61.615C359.615 61.615 351.698 67.9337 346.275 74.0216C344.104 69.8842 337.994 61.615 323.72 61.615C311.654 61.615 304.544 67.7139 300.994 72.0546V63.2963H281.115V147.511H300.994V99.0491C300.994 87.6864 308.016 79.4996 317.368 79.4996C326.901 79.4996 332.412 86.6864 332.412 98.2139V147.505H352.297V99.0436C352.297 87.5161 359.143 79.4941 369 79.4941C378.527 79.4941 384.038 86.6809 384.038 98.2029V147.5H404.093V95.3678C404.093 73.4117 392.291 61.6205 374.846 61.6205V61.615Z" fill="black"/>
</g>
<defs>
<clipPath id="clip0_156_2">
<rect width="500" height="186.813" fill="white"/>
</clipPath>
</defs>
</svg>
